name rise44.9368peak50.754fall52.0217.mot
datacolumns 19
datarows 30
range 14.87161300000000 14.91994600000000
endheader
time	ground_force1_vx	ground_force1_vy	ground_force1_vz	ground_force1_px	ground_force1_py	ground_force1_pz	ground_force2_vx	ground_force2_vy	ground_force2_vz	ground_force2_px	ground_force2_py	ground_force2_pz	ground_torque1_x	ground_torque1_y	ground_torque1_z	ground_torque2_x	ground_torque2_y	ground_torque2_z	
14.87161300000000	60.70541900000000	755.41903100000002	65.07806600000001	0.37185900000000	0.00000000000000	0.14346500000000	0.00000000000000	0.00000000000000	0.00000000000000	0.00000000000000	0.00000000000000	0.00000000000000	0.00000000000000	29.99938800000000	0.00000000000000	0.00000000000000	0.00000000000000	0.00000000000000	
14.87328500000000	59.78863800000000	756.78728999999998	65.10112800000000	0.37002700000000	0.00000000000000	0.14350000000000	0.00000000000000	0.00000000000000	0.00000000000000	0.00000000000000	0.00000000000000	0.00000000000000	0.00000000000000	30.06258000000000	0.00000000000000	0.00000000000000	0.00000000000000	0.00000000000000	
14.87494800000000	58.87942500000000	758.09568600000000	65.12673500000000	0.36820900000000	0.00000000000000	0.14353600000000	0.00000000000000	0.00000000000000	0.00000000000000	0.00000000000000	0.00000000000000	0.00000000000000	0.00000000000000	30.12760200000000	0.00000000000000	0.00000000000000	0.00000000000000	0.00000000000000	
14.87661300000000	57.97857600000000	759.34376699999996	65.15476400000000	0.36640400000000	0.00000000000000	0.14357200000000	0.00000000000000	0.00000000000000	0.00000000000000	0.00000000000000	0.00000000000000	0.00000000000000	0.00000000000000	30.19431900000000	0.00000000000000	0.00000000000000	0.00000000000000	0.00000000000000	
14.87827800000000	57.08680400000000	760.53103299999998	65.18502100000001	0.36461600000000	0.00000000000000	0.14360900000000	0.00000000000000	0.00000000000000	0.00000000000000	0.00000000000000	0.00000000000000	0.00000000000000	0.00000000000000	30.26255500000000	0.00000000000000	0.00000000000000	0.00000000000000	0.00000000000000	
14.87994400000000	56.20473500000000	761.65694599999995	65.21724600000000	0.36284500000000	0.00000000000000	0.14364600000000	0.00000000000000	0.00000000000000	0.00000000000000	0.00000000000000	0.00000000000000	0.00000000000000	0.00000000000000	30.33210100000000	0.00000000000000	0.00000000000000	0.00000000000000	0.00000000000000	
14.88161500000000	55.33291500000000	762.72095000000002	65.25111600000000	0.36109300000000	0.00000000000000	0.14368400000000	0.00000000000000	0.00000000000000	0.00000000000000	0.00000000000000	0.00000000000000	0.00000000000000	0.00000000000000	30.40271200000000	0.00000000000000	0.00000000000000	0.00000000000000	0.00000000000000	
14.88328000000000	54.47181200000000	763.72247700000003	65.28625200000000	0.35936200000000	0.00000000000000	0.14372200000000	0.00000000000000	0.00000000000000	0.00000000000000	0.00000000000000	0.00000000000000	0.00000000000000	0.00000000000000	30.47411700000000	0.00000000000000	0.00000000000000	0.00000000000000	0.00000000000000	
14.88494700000000	53.62181700000000	764.66096200000004	65.32222500000000	0.35765300000000	0.00000000000000	0.14376000000000	0.00000000000000	0.00000000000000	0.00000000000000	0.00000000000000	0.00000000000000	0.00000000000000	0.00000000000000	30.54601900000000	0.00000000000000	0.00000000000000	0.00000000000000	0.00000000000000	
14.88661000000000	52.78324600000000	765.53585599999997	65.35856000000000	0.35596700000000	0.00000000000000	0.14379700000000	0.00000000000000	0.00000000000000	0.00000000000000	0.00000000000000	0.00000000000000	0.00000000000000	0.00000000000000	30.61809800000000	0.00000000000000	0.00000000000000	0.00000000000000	0.00000000000000	
14.88828400000000	51.95634700000000	766.34663599999999	65.39473800000000	0.35430600000000	0.00000000000000	0.14383400000000	0.00000000000000	0.00000000000000	0.00000000000000	0.00000000000000	0.00000000000000	0.00000000000000	0.00000000000000	30.69001400000000	0.00000000000000	0.00000000000000	0.00000000000000	0.00000000000000	
14.88995100000000	51.14130200000000	767.09281899999996	65.43021100000000	0.35267000000000	0.00000000000000	0.14387100000000	0.00000000000000	0.00000000000000	0.00000000000000	0.00000000000000	0.00000000000000	0.00000000000000	0.00000000000000	30.76141500000000	0.00000000000000	0.00000000000000	0.00000000000000	0.00000000000000	
14.89161500000000	50.33822900000000	767.77396999999996	65.46439900000000	0.35106100000000	0.00000000000000	0.14390700000000	0.00000000000000	0.00000000000000	0.00000000000000	0.00000000000000	0.00000000000000	0.00000000000000	0.00000000000000	30.83193500000000	0.00000000000000	0.00000000000000	0.00000000000000	0.00000000000000	
14.89328200000000	49.54718800000000	768.38971500000002	65.49669900000001	0.34948000000000	0.00000000000000	0.14394200000000	0.00000000000000	0.00000000000000	0.00000000000000	0.00000000000000	0.00000000000000	0.00000000000000	0.00000000000000	30.90119800000000	0.00000000000000	0.00000000000000	0.00000000000000	0.00000000000000	
14.89494700000000	48.76818400000000	768.93975000000000	65.52649200000000	0.34792700000000	0.00000000000000	0.14397600000000	0.00000000000000	0.00000000000000	0.00000000000000	0.00000000000000	0.00000000000000	0.00000000000000	0.00000000000000	30.96882400000000	0.00000000000000	0.00000000000000	0.00000000000000	0.00000000000000	
14.89661300000000	48.00116900000000	769.42384700000002	65.55314900000000	0.34640300000000	0.00000000000000	0.14400900000000	0.00000000000000	0.00000000000000	0.00000000000000	0.00000000000000	0.00000000000000	0.00000000000000	0.00000000000000	31.03443100000000	0.00000000000000	0.00000000000000	0.00000000000000	0.00000000000000	
14.89827700000000	47.24605200000000	769.84186899999997	65.57603300000000	0.34490900000000	0.00000000000000	0.14404100000000	0.00000000000000	0.00000000000000	0.00000000000000	0.00000000000000	0.00000000000000	0.00000000000000	0.00000000000000	31.09763500000000	0.00000000000000	0.00000000000000	0.00000000000000	0.00000000000000	
14.89994900000000	46.50269700000000	770.19376999999997	65.59450800000000	0.34344500000000	0.00000000000000	0.14407100000000	0.00000000000000	0.00000000000000	0.00000000000000	0.00000000000000	0.00000000000000	0.00000000000000	0.00000000000000	31.15805900000000	0.00000000000000	0.00000000000000	0.00000000000000	0.00000000000000	
14.90161300000000	45.77092900000000	770.47960699999999	65.60794400000000	0.34201100000000	0.00000000000000	0.14410000000000	0.00000000000000	0.00000000000000	0.00000000000000	0.00000000000000	0.00000000000000	0.00000000000000	0.00000000000000	31.21532800000000	0.00000000000000	0.00000000000000	0.00000000000000	0.00000000000000	
14.90328200000000	45.05054000000000	770.69954399999995	65.61572099999999	0.34060900000000	0.00000000000000	0.14412700000000	0.00000000000000	0.00000000000000	0.00000000000000	0.00000000000000	0.00000000000000	0.00000000000000	0.00000000000000	31.26907700000000	0.00000000000000	0.00000000000000	0.00000000000000	0.00000000000000	
14.90494600000000	44.34129100000000	770.85385799999995	65.61723499999999	0.33923800000000	0.00000000000000	0.14415200000000	0.00000000000000	0.00000000000000	0.00000000000000	0.00000000000000	0.00000000000000	0.00000000000000	0.00000000000000	31.31895400000000	0.00000000000000	0.00000000000000	0.00000000000000	0.00000000000000	
14.90661800000000	43.64291800000000	770.94294000000002	65.61190400000000	0.33789800000000	0.00000000000000	0.14417600000000	0.00000000000000	0.00000000000000	0.00000000000000	0.00000000000000	0.00000000000000	0.00000000000000	0.00000000000000	31.36461700000000	0.00000000000000	0.00000000000000	0.00000000000000	0.00000000000000	
14.90828000000000	42.95513400000000	770.96730200000002	65.59916699999999	0.33658900000000	0.00000000000000	0.14419700000000	0.00000000000000	0.00000000000000	0.00000000000000	0.00000000000000	0.00000000000000	0.00000000000000	0.00000000000000	31.40574000000000	0.00000000000000	0.00000000000000	0.00000000000000	0.00000000000000	
14.90994700000000	42.27763200000000	770.92758000000003	65.57849800000000	0.33531200000000	0.00000000000000	0.14421600000000	0.00000000000000	0.00000000000000	0.00000000000000	0.00000000000000	0.00000000000000	0.00000000000000	0.00000000000000	31.44201700000000	0.00000000000000	0.00000000000000	0.00000000000000	0.00000000000000	
14.91161000000000	41.61009400000000	770.82453099999998	65.54939899999999	0.33406700000000	0.00000000000000	0.14423300000000	0.00000000000000	0.00000000000000	0.00000000000000	0.00000000000000	0.00000000000000	0.00000000000000	0.00000000000000	31.47315600000000	0.00000000000000	0.00000000000000	0.00000000000000	0.00000000000000	
14.91328000000000	40.95218700000000	770.65903800000001	65.51141300000000	0.33285200000000	0.00000000000000	0.14424700000000	0.00000000000000	0.00000000000000	0.00000000000000	0.00000000000000	0.00000000000000	0.00000000000000	0.00000000000000	31.49888900000000	0.00000000000000	0.00000000000000	0.00000000000000	0.00000000000000	
14.91494500000000	40.30357400000000	770.43210799999997	65.46411999999999	0.33166800000000	0.00000000000000	0.14426000000000	0.00000000000000	0.00000000000000	0.00000000000000	0.00000000000000	0.00000000000000	0.00000000000000	0.00000000000000	31.51896900000000	0.00000000000000	0.00000000000000	0.00000000000000	0.00000000000000	
14.91661700000000	39.66391100000000	770.14487299999996	65.40714400000000	0.33051400000000	0.00000000000000	0.14426900000000	0.00000000000000	0.00000000000000	0.00000000000000	0.00000000000000	0.00000000000000	0.00000000000000	0.00000000000000	31.53317200000000	0.00000000000000	0.00000000000000	0.00000000000000	0.00000000000000	
14.91827600000000	39.03285300000000	769.79858400000001	65.34015599999999	0.32939000000000	0.00000000000000	0.14427700000000	0.00000000000000	0.00000000000000	0.00000000000000	0.00000000000000	0.00000000000000	0.00000000000000	0.00000000000000	31.54129800000000	0.00000000000000	0.00000000000000	0.00000000000000	0.00000000000000	
14.91994600000000	38.41005900000000	769.39461500000004	65.26287100000000	0.32829500000000	0.00000000000000	0.14428100000000	0.00000000000000	0.00000000000000	0.00000000000000	0.00000000000000	0.00000000000000	0.00000000000000	0.00000000000000	31.54317100000000	0.00000000000000	0.00000000000000	0.00000000000000	0.00000000000000	
